<?xml version="1.0" encoding="utf-8"?>
<svg xmlns="http://www.w3.org/2000/svg" id="Ebene_1" data-name="Ebene 1" viewBox="0 0 352.69 156.75">
  <defs>
    <style>
      .cls-1 {
        stroke-width: .57px;
      }

      .cls-1, .cls-2, .cls-3, .cls-4, .cls-5, .cls-6 {
        fill: none;
        stroke-linecap: round;
        stroke-linejoin: round;
      }

      .cls-1, .cls-2, .cls-3, .cls-4, .cls-6 {
        stroke: #000;
      }

      .cls-2 {
        stroke-width: .41px;
      }

      .cls-3 {
        stroke-width: .85px;
      }

      .cls-4 {
        stroke-width: .43px;
      }

      .cls-5 {
        stroke: #999;
      }

      .cls-5, .cls-6 {
        stroke-width: .28px;
      }
    </style>
  </defs>
  <path class="cls-3" d="M340.41,24.45l-.03-.03c-1.49-2.18-2.45-3.31-6.72-6.62-4.27-3.31-14.03-6.36-18.3-7.59-4.27-1.22-14.56-1.39-18.48-1.3-.15,0-.32.01-.51,0h-.01l-6.07-.03c-5.86-.06-14.05-.19-19.7-.23-2.28-.01-4.13-.02-5.26,0-1.28.02-2.98.05-4.85.08h-.06c-1.12-.02-2.77-.01-2.77-.01-.75.02-1.44.05-2.07.11h-.06l-67.75.49-.05.06c-1.19-1.03-2.76-1.32-3.38-1.39-.82-.08-3.57-.13-3.57-.13-4.83,0-7.3.87-8.51,1.56l-.03-.04c-5.76,0-11.36.02-13.73.05-5.17.06-13.13.18-16.39.23h-.04c.78-2.29,1.73-5.2,2.57-8.34,0,0,.05-.3-.2-.41-.23-.11-.33-.13-.33-.13l-.22.12-.42-.14-.05-.33c-5.61,0-10.52,4.93-10.52,4.93,0,0-2.09,1.95-3.6,4.28l-.13-.08c-5.67-.03-11.59-.08-15.95-.13-2.51-.03-4.5-.05-5.64-.08-4.4-.09-18.54-.4-25.75-.4h-11c-13.88,0-18.48.24-20.24.29-.39.01-1.08.05-1.91.09-2.95.16-7.73.44-7.73.44,0,0-4.02.45-8.37,1.28-2.16.41-4.4.92-6.27,1.52-2.84.9-5.18,3.18-8.11,7.38-2.44,3.5-8.59,11.87-10.85,15.57-.83,1.37-2.15,3.25-2.72,4.59-1.28,3-1.85,3.96-2.4,8.31-.1.81-.21,1.66-.32,2.56,0,.02,0,.04,0,.05-.05.29-.07.45-.07.45l.02-.03c-.38,3.29-.77,7.2-1.05,12.21-.22,4.1-.37,8.92-.37,14.72s.15,10.63.37,14.72c.28,5,.68,8.9,1.05,12.2l-.02-.03s.02.16.07.45c0,.02,0,.03,0,.05.11.9.22,1.75.32,2.56.55,4.35,1.12,5.32,2.4,8.32.57,1.33,1.89,3.22,2.72,4.59,2.26,3.7,8.41,12.07,10.85,15.56,2.93,4.21,5.27,6.48,8.11,7.39,1.87.59,4.11,1.1,6.27,1.51,4.35.83,8.37,1.28,8.37,1.28,0,0,4.78.29,7.73.45.83.04,1.52.07,1.91.08,1.76.06,6.36.3,20.24.3h11c7.21,0,21.35-.31,25.75-.41,1.14-.02,3.13-.05,5.64-.08,4.39-.05,10.35-.1,16.04-.13l.06-.04c1.51,2.31,3.58,4.24,3.58,4.24,0,0,4.91,4.94,10.52,4.94l.05-.33.42-.14.22.12s.1-.02.33-.13c.25-.12.2-.42.2-.42-.84-3.14-1.79-6.05-2.57-8.33h.04c3.26.05,11.22.17,16.39.23,2.37.02,7.97.04,13.73.05l.03-.05c1.21.69,3.68,1.56,8.51,1.56,0,0,2.75-.04,3.57-.13.62-.06,2.19-.35,3.38-1.38l.05.06,68.65.55c.39.02.8.04,1.23.05,0,0,1.43.01,2.53-.02.11.01.22.01.31,0,1.87.04,3.56.07,4.84.09,1.13.02,2.99.01,5.26-.01,8.21-.06,21.81-.3,25.77-.25.2-.01.37,0,.52,0,3.92.09,14.21-.09,18.48-1.31,4.27-1.22,14.03-4.27,18.3-7.58,4.27-3.31,5.23-4.45,6.72-6.63,0,0,.01,0,.03-.03.67-.57,11.29-10.47,11.86-53.92-.57-43.46-11.19-53.36-11.86-53.93Z"/>
  <g>
    <path class="cls-6" d="M103.41,78.55c0,24.84,6.45,49.3,6.45,49.3,0,0,.99,4.45,9.07,2.99,8.08-1.45,30.42-5.81,30.42-5.81,0,0,1.89-.23,1.48-2.79-.41-2.56-3.53-21.25-3.7-33.46,0,0,0-.26-.42-.41-.41-.15-6.34-2.42-6.34-2.42,0,0-1.37-.48-1.48-2.35l-.13-1s-.09-.61-.81-.83c-.72-.22-3.01-.96-3.01-.96,0,0-1.15-.11-1.15-2.35"/>
    <path class="cls-6" d="M103.41,78.37c0-24.84,6.45-49.31,6.45-49.31,0,0,.99-4.44,9.07-2.99,8.08,1.45,30.42,5.81,30.42,5.81,0,0,1.89.23,1.48,2.79-.41,2.55-3.53,21.25-3.7,33.45,0,0,0,.26-.42.41-.41.15-6.34,2.42-6.34,2.42,0,0-1.37.48-1.48,2.35l-.13,1s-.09.61-.81.83c-.72.22-3.01.96-3.01.96,0,0-1.15.11-1.15,2.35"/>
    <path class="cls-1" d="M149.43,78.37c0-26.32,4.45-46.46,4.45-46.46,0,0,.38-1.69-1.37-2.03-1.74-.35-29.81-5.64-44.97-8.99"/>
    <path class="cls-6" d="M106.36,22.08s13.92,3.08,47.21,9.05"/>
    <path class="cls-6" d="M293.8,38.37c4.05.32,8.19.69,12.37,1.16"/>
    <path class="cls-6" d="M154.08,31.63s18.59,2.44,39.69,2.91c21.09.46,50.75,1.22,64.12,1.92,9.8.51,21.56.87,34.19,1.8"/>
    <path class="cls-1" d="M187.76,9.32c.21,0,.39,0,.55,0,4.13-.06,27.07.38,33.96.47,6.88.09,12.64.26,14.47.09,1.83-.17,6.1-.7,8.28-.79,2.18-.09,14.9-.35,20.31-.44,5.4-.09,27.63.35,31.55.26,3.92-.09,14.21.09,18.48,1.31,4.27,1.22,14.03,4.27,18.3,7.58,4.27,3.31,5.23,4.44,6.71,6.62,1.48,2.18,11.07,17.08,11.07,54.13"/>
    <path class="cls-6" d="M176.45,9.36c2.22,0,4.92-.01,6.76-.02"/>
    <path class="cls-1" d="M172.23,9.37c-5.76.01-11.36.03-13.73.05-5.17.06-13.13.18-16.39.23"/>
    <path class="cls-1" d="M115.61,18.67c-4.57.13-10.67,3.19-10.67,3.19"/>
    <path class="cls-6" d="M290.08,24.38c.04-2.79-18.65-4.4-22.49-4.71-3.83-.3-18.13-1.13-25.63-1.52-7.5-.39-31.43-1.05-41.23-1.18-9.8-.13-27.89-.22-38.7-.13-10.81.09-46.29,1.13-46.29,1.13"/>
    <path class="cls-1" d="M143.41.42c-5.61,0-10.51,4.94-10.51,4.94,0,0-5.14,4.79-5.14,8.31,0,0-.41,1.68,2.62,1.86,3.02.18,7.93.18,8.48.14.25-.01.52-.08.78-.26.3-.21.58-.58.79-1.19.38-1.13,2.5-6.54,4.22-12.9,0,0,.04-.3-.2-.41-.24-.11-.34-.13-.34-.13l-.22.12-.42-.14-.05-.33Z"/>
    <path class="cls-6" d="M138.85,15.67s-1.67.57,4.61-14.92"/>
    <path class="cls-6" d="M139.34,15.53s-1.7.92,4.57-14.57"/>
    <path class="cls-1" d="M128.25,11.5c-.26.52-.9,1.29-1.89,2.05-.99.76-.86,1.9-.86,1.9,0,0,.14.48.67.61.52.13,2.8.32,4.11.23,1.3-.09,1.52-.1,1.9-.13.38-.03.64-.3.83-.48"/>
    <path class="cls-6" d="M125.78,15.53s1.02-.68,1.28-1.33c.26-.65.74-1.77.74-1.77"/>
    <path class="cls-1" d="M188.74,10.69c-1.02-2.12-3.57-2.61-4.4-2.7-.83-.09-3.57-.13-3.57-.13-8.04,0-9.56,2.42-9.56,2.42,0,0,1.48.24,3.13.33,0,0,1.18-1.33,3.36-1.46,2.18-.13,4.12-.22,4.97,0,.85.22,1.51.7,1.74,1.57l4.34-.02"/>
    <path class="cls-6" d="M174.79,10.47s4.25.38,9.18.17"/>
    <path class="cls-6" d="M253.36,10.32c2.22-.06,4.91-.13,6.75-.18"/>
    <path class="cls-1" d="M265.68,11.35c-1.08-2.09-3.64-2.53-4.46-2.59-.83-.07-3.57-.05-3.57-.05-8.04.2-9.5,2.65-9.5,2.65,0,0,1.49.2,3.14.25,0,0,1.14-1.36,3.32-1.54,2.17-.18,4.11-.32,4.96-.12.86.2,1.52.66,1.78,1.53l4.33-.13"/>
    <path class="cls-6" d="M251.74,11.47s4.25.27,9.18-.05"/>
    <path class="cls-6" d="M189.61,10.39c3.58.05,15.75.22,19.31.33,4.18.13,18.89.34,21.56.34s7.32-.23,9.12-.38"/>
    <path class="cls-1" d="M266.75,20.96s-.09-.29.2-.64c.29-.35,3.43-4.21,4.85-6.83,0,0,1.05-1.08.21-2.41-.84-1.34-1.16-2-1.42-2.38"/>
    <path class="cls-1" d="M189.61,18.23s4.03,3.76,8.06,11.55"/>
    <path class="cls-1" d="M201.89,29.81c-1.92-6.19-5.65-11.58-5.65-11.58l-.13-1.4s-.9-2.86-3.08-5.8c0,0-.31-.59-.96-.65l-.35-.84"/>
    <path class="cls-1" d="M202.92,18.39s2.25,5.58,3.01,11.42"/>
    <path class="cls-6" d="M116.3,18.85s11.91,3.15,22.54,5.46c10.63,2.31,20.51,4.32,25.1,4.81,4.59.5,27.2,1.44,35,1.57,7.8.13,21.76.26,21.76.26,0,0,25.67.22,31.9-.09,0,0,14.99-.48,24.28-2.57,0,0,12.99-2.53,13.21-3.92"/>
    <path class="cls-1" d="M117.85,18.82s17.64,3.92,22.5,4.99c4.86,1.07,16.84,3.49,20.79,4.01,3.95.52,11.85,1.1,14.61,1.22,2.76.12,15.67.65,22.4.74,6.73.09,18.12.19,24.34.25,6.22.06,26.61.29,34.51-.35,7.9-.64,16.1-1.71,20.66-2.7,4.56-.99,8.6-1.86,8.66-2.64.06-.83-5.32-1.57-11.46-2.4-6.15-.83-19.13-1.7-29.94-2.22-10.81-.52-40.35-1.39-48.83-1.45-8.48-.06-36.38-.12-47.82,0-11.45.11-31.97.59-31.97.59l-.47-.23c-1.35-1.74-1.83-5.06-1.83-5.06-.35-1.83-.96-3.53-.96-3.53l.17-.48"/>
    <path class="cls-1" d="M253.4,29.79c2.35-1.86,7.57-5.76,13.38-8.62"/>
    <path class="cls-1" d="M248.99,30.02s2.36-2.18,6.36-5.03c1.85-1.32,4.04-2.78,6.52-4.23"/>
    <path class="cls-1" d="M254.05,20.21s.8,2.77,1.3,4.78"/>
    <path class="cls-6" d="M233.46,11.91s13.55,1.96,37.35,1.13"/>
    <path class="cls-6" d="M294.65,14.22c4.77.45,9.94,1.35,16.12,2.18"/>
    <path class="cls-6" d="M273.06,13.04c.09-.03.86-.02,2.38.04"/>
    <path class="cls-6" d="M288.1,21.51s18.19.47,33.64,7.5"/>
    <path class="cls-6" d="M96.1,62.98c-.52,4.73-.82,9.87-.82,15.42"/>
    <path class="cls-6" d="M108.23,23.37s-8.01,11.71-11.44,34.26"/>
    <path class="cls-6" d="M98.57,108.26c3.89,16.59,9.66,25.17,9.66,25.17"/>
    <path class="cls-6" d="M95.27,78.4c0,5.55.31,10.69.82,15.42,0,0,.3,2.55.56,4.39"/>
    <path class="cls-6" d="M113.87,15.99c-12.32.06-11.68.06-16.5,0"/>
    <path class="cls-4" d="M296.35,8.9s2.27,1.92,4.97,2.7c2.7.79,6.36,2.13,7.28,2.62.91.48,5.14,1.35,7.45,2.09,2.31.74,12.07,3.88,15.3,7.28,0,0,13.81,10.24,13.81,54.87"/>
    <path class="cls-1" d="M293.83,78.37s.08-24.23,0-29.98c-.09-5.75-.66-9.52-.66-9.52,0,0-.09-.39-.3-.81,0,0-1.22-2.7-1.44-3.36-.22-.66-.96-2.22,1.53-2.66,2.48-.44,14.38-2.16,22.72-1.93,0,0,8.14.2,11.62,4.65,3.49,4.45,5.37,9.65,6.36,14.47.99,4.82,2.61,10.72,2.61,29.14"/>
    <path class="cls-6" d="M293.8,31.88s13.48-2.7,24.93-2.35c0,0,5.02-.08,9.76,5,0,0,5.23,5.4,7.55,21.79,0,0,1.51,11.77,1.51,22.05"/>
    <path class="cls-1" d="M310.01,30.29s-1.39,2.79-1.16,5.17c0,0-.06,1.97,1.86,5.69,0,0,1.22,1.86,1.98,9.41.66,6.57,1.73,15.95,1.73,27.81"/>
    <path class="cls-6" d="M295.66,31.57s8.66,3.66,11.8,6.22c3.14,2.55,4.47,5.58,5.06,10.86"/>
    <path class="cls-6" d="M292.23,35.23s7.84.76,9.41,1.11c1.57.35,6.91,1.8,8.89,6.91,0,0,3.6,11.5,3.6,35.15"/>
    <path class="cls-6" d="M114.48,18.85s27.45,6.85,33.09,8.07c5.64,1.22,17.55,3.31,25.39,3.6,7.84.29,29.17.99,29.17.99,39.63,0,88.52,3.72,88.52,3.72"/>
    <path class="cls-6" d="M153.44,36.27s22.14,2.38,36.49,2.79c14.36.41,73.42,2.21,100.67,3.78"/>
    <path class="cls-6" d="M340.37,24.42s11.3,9.1,11.9,53.95"/>
    <path class="cls-6" d="M309.31,14.48s8.33.32,16.12,4.04c0,0,8.88,3.29,12.67,11.58,0,0,9.15,17.6,9.15,48.28"/>
    <path class="cls-6" d="M322.85,31.48l1.4-.35s4.9-1.83,10.76-2.93"/>
    <path class="cls-6" d="M337.7,28.05s4.77.31,5.44,1.65"/>
    <path class="cls-6" d="M309.69,118.38s10.46,1.05,12.99.78c2.53-.26,6.8-2.09,7.93-6.19,1.13-4.1,3.14-16.56,3.49-23.18,0,0-.03-1.92-.38-2.79-.35-.87-1.22-2.38-1.22-4.18v-4.3"/>
    <path class="cls-6" d="M333.09,71.37c-.31.77-.59,1.7-.59,2.73v4.3"/>
    <path class="cls-6" d="M309.69,38.54s10.46-1.04,12.99-.79c2.53.26,6.8,2.09,7.93,6.19.74,2.67,1.85,8.91,2.63,14.76"/>
    <path class="cls-4" d="M333.69,59.83c1.17,4.97,2.3,17.06,2.47,18.39.18,1.34-.2,1.71-.46,1.95-.27.23-.64.47-.84.47s-.44-.09-.67-.29c-.23-.2-.3-.93-.3-.93l-1.66-20.48.68-.14s.55.06.78,1.04Z"/>
    <path class="cls-6" d="M332.22,58.94s.91.17,1.06,1.01c.14.84,2.09,18.97,2.09,18.97,0,0,0,.7-.78,1.22"/>
    <path class="cls-4" d="M332.22,58.94c-.51-3.46-1.2-7.53-1.48-9.19-.09-.51-.13-.81-.13-.81l.52-.09s.87,5.46,1.63,9.88"/>
    <path class="cls-4" d="M333.9,79.9s-.7-.41-.7-1.13c0-.76.46-1.07.46-1.07"/>
    <path class="cls-4" d="M293.88,14.45c-.56,2.75-4.68,2.99-4.68,2.99-3.63.2-9.09-.38-9.09-.38-3.69-.44-3.95-3.78-3.95-3.78,0-1.28.73-1.45.73-1.45,0,0,1.12-.69,4.39-.55,3.08.13,8.22.41,9.99.7,1.78.29,2.14.56,2.39.81.41.42.26,1.51.23,1.66Z"/>
    <path class="cls-4" d="M97.86,94c.37,3.89,1.28,12.83,1.71,16.41l.87-.06c-2.27-18.94-3.72-45.56-3.72-45.56l-.87.06s.52,9.54,1.42,21.27"/>
    <path class="cls-4" d="M97.02,90.63s.29,7.92.2,10.49c0,0-.13,2.96-.3,6.58-.17,3.62-.35,6.84-.35,6.84"/>
    <path class="cls-4" d="M98.44,118.16s.3-.31.26-1.13c-.04-.83-.83-10.33-.83-10.33"/>
    <path class="cls-4" d="M97.96,116.72l-.09-11.98c.22-7.28-.17-13.42-.17-13.42,0,0-.32-.3-.58-.64-.17-.22-.32-.45-.33-.62-.04-.44-.13-3.44-.13-3.44l.43-.39.92-.04"/>
    <path class="cls-4" d="M98.09,118.21l.61.2s.29,2.06.18,3.72"/>
    <path class="cls-6" d="M97.22,116.93l.64.12s.46.38.06.87"/>
    <line class="cls-6" x1="96.92" y1="86.65" x2="97.48" y2="86.65"/>
    <line class="cls-6" x1="97.96" y1="86.26" x2="97.72" y2="86.5"/>
    <line class="cls-6" x1="97.61" y1="86.96" x2="97.89" y2="91.01"/>
    <path class="cls-4" d="M102.71,42.37l-.73-.29s-.7-.29-.9.38c-.2.67-.87,2.82-.87,2.82l-.03,1.22-.99,3.05.41.17.2.21.78-2.53.7-1.08.35-.06,1.08-3.89Z"/>
    <line class="cls-6" x1="101.19" y1="45.86" x2="102.04" y2="42.64"/>
    <path class="cls-4" d="M99.26,49.59s-1.31,3.98-5.84,20.83"/>
    <path class="cls-4" d="M99.74,49.88s-1.31,3.98-5.84,20.83l.1.37s-.81,7.03-1.02,8.34c-.2,1.31-.41,2.67-.76,3.17"/>
    <path class="cls-4" d="M93.42,70.42s-.91,3.53-1.23,5.8"/>
    <line class="cls-6" x1="92.22" y1="79.62" x2="93.76" y2="71.11"/>
    <path class="cls-4" d="M102.29,42c1.65-5.5,3.49-11.45,5.3-16.93l.64.16c-5.46,16.45-11.16,37.19-11.16,37.19l-.6-.2"/>
    <g>
      <path class="cls-1" d="M.43,78.37c0-15.18,1.01-23.67,1.8-29.95.55-4.35,1.11-5.32,2.39-8.32.57-1.33,1.89-3.22,2.73-4.59,2.26-3.7,8.4-12.07,10.84-15.57,2.93-4.2,5.28-6.48,8.12-7.38,5.63-1.8,14.64-2.79,14.64-2.79,0,0,7.89-.48,9.65-.53,1.76-.06,6.36-.3,20.23-.3h11.01c7.2,0,21.35.31,25.75.41,3.13.07,12.66.16,21.6.21"/>
      <path class="cls-2" d="M8.98,78.32s.67-1.99,2.25-1.99h1.73s.51.07.51,1.99"/>
      <path class="cls-1" d="M91.8,78.32c0-38.35,12.96-56.05,12.96-56.05.4-.55.05-.9.05-.9,0,0-.55-.55-1.95-1.6s-3.65-2.2-8.5-2.55-13.72-.27-25.93-.13c-12.21.13-25.28,1.07-25.28,1.07,0,0-5.47,7.1-12.24,13.57,0,0-2.33,2-5.27,3.5-2.93,1.5-12.37,5.97-13.87,6.9,0,0-2.23,1.2-3,5.4s-2.95,17.06-2.95,30.79"/>
      <path class="cls-6" d="M10.26,45.93s15.91-9,32.12-11.91c16.21-2.9,24.71-4.2,57.63-8.1"/>
      <path class="cls-6" d="M7.85,63.33c13.72-.82,47.31-2.66,82.26-3.2"/>
      <path class="cls-6" d="M2.46,63.73s.81-.08,2.96-.21"/>
      <path class="cls-4" d="M43.16,18.08s.82-1.35.55-1.93c-.15-.32-.47-1.03-2.3-1.1-1.83-.07-6.25-.38-8.74.5-2.49.88-3.18,1.32-6.34,4.64s-6.61,7.85-11.5,14c-.39.5-.76,1.01-1.09,1.55-.77,1.25-2.03,3.48-2.4,5.34,0,0-.15,1.2,1.23.55"/>
      <path class="cls-5" d="M15.6,36.99s7.07-11.14,14.77-18.14c0,0,2.53-2.27,5.44-2.17l2.77.1s1.93.2.77,1.77c-1.17,1.57-7.64,9.47-11.77,13.54,0,0-2.93,2.67-4.87,3.57s-4.57,2.07-6.37,2.7c0,0-2.33,1.1-.73-1.37Z"/>
      <path class="cls-5" d="M36.18,16.69s2.66.25.96,2.42-6,7.64-9.24,11.21c-3.23,3.57-4.24,4.8-5.94,5.67"/>
      <path class="cls-5" d="M30.92,26.82c-3.33-.37-4.29,1.67-4.29,1.67l-2.63,5.94"/>
      <path class="cls-5" d="M29.19,26.84l3.24-7.03s.9-2.03,5.17-2.37"/>
      <path class="cls-6" d="M1.96,50.62s2.05-7.44,6.15-12.69c4.1-5.25,11.36-14.31,14.91-17.51s6.7-5.7,10.76-6.1"/>
      <path class="cls-4" d="M33.47,15.26s-.2-1.15,3.55-2.35c3.75-1.2,11.66-3.55,11.66-3.55"/>
      <path class="cls-6" d="M104.73,21.26s.23.59,1.63.81"/>
    </g>
    <path class="cls-6" d="M1.83,51.48s.8-6.39,6.05-14.44c5.26-8.05,14.5-20.49,15.63-21.69s5.79-3.73,9.85-4.39"/>
    <path class="cls-1" d="M149.43,78.37c0,26.32,4.45,46.46,4.45,46.46,0,0,.38,1.69-1.37,2.03-1.74.35-29.58,5.64-44.74,8.99"/>
    <path class="cls-6" d="M106.36,134.67s13.92-3.08,47.21-9.05"/>
    <path class="cls-6" d="M293.8,118.37c4.05-.32,8.19-.69,12.37-1.16"/>
    <path class="cls-6" d="M154.08,125.12s18.59-2.44,39.69-2.91c21.09-.46,50.75-1.22,64.12-1.92,9.8-.51,21.56-.87,34.19-1.8"/>
    <path class="cls-1" d="M187.76,147.43c.21,0,.39,0,.55,0,4.13.06,27.07-.38,33.96-.47,6.88-.09,12.64-.26,14.47-.09,1.83.17,6.1.7,8.28.79,2.18.09,14.9.35,20.31.44,5.4.09,27.63-.35,31.55-.26,3.92.09,14.21-.09,18.48-1.31,4.27-1.22,14.03-4.27,18.3-7.58,4.27-3.31,5.23-4.44,6.71-6.62,1.48-2.18,11.07-17.08,11.07-54.13"/>
    <path class="cls-6" d="M176.45,147.38c2.22,0,4.92.01,6.76.02"/>
    <path class="cls-1" d="M172.23,147.38c-5.76-.01-11.36-.03-13.73-.05-5.17-.06-13.13-.18-16.39-.23"/>
    <path class="cls-1" d="M115.61,138.08c-4.57-.13-10.66-3.26-10.66-3.26"/>
    <path class="cls-6" d="M290.08,132.37c.04,2.79-18.65,4.4-22.49,4.71-3.83.3-18.13,1.13-25.63,1.52-7.5.39-31.43,1.05-41.23,1.18-9.8.13-27.89.22-38.7.13-10.81-.09-46.29-1.13-46.29-1.13"/>
    <path class="cls-1" d="M143.41,156.33c-5.61,0-10.51-4.94-10.51-4.94,0,0-5.14-4.79-5.14-8.31,0,0-.41-1.68,2.62-1.86,3.02-.18,7.93-.18,8.48-.14.25.01.52.08.78.26.3.21.58.58.79,1.19.38,1.13,2.5,6.54,4.22,12.9,0,0,.04.3-.2.41-.24.11-.34.13-.34.13l-.22-.12-.42.14-.05.33Z"/>
    <path class="cls-6" d="M138.85,141.08s-1.67-.57,4.61,14.92"/>
    <path class="cls-6" d="M139.34,141.22s-1.7-.92,4.57,14.57"/>
    <path class="cls-1" d="M128.25,145.24c-.26-.52-.9-1.29-1.89-2.05-.99-.76-.86-1.9-.86-1.9,0,0,.14-.48.67-.61.52-.13,2.8-.32,4.11-.23,1.3.09,1.52.1,1.9.13.38.03.64.3.83.48"/>
    <path class="cls-6" d="M125.78,141.22s1.02.68,1.28,1.33c.26.65.74,1.77.74,1.77"/>
    <path class="cls-1" d="M188.74,146.06c-1.02,2.12-3.57,2.61-4.4,2.7-.83.09-3.57.13-3.57.13-8.04,0-9.56-2.42-9.56-2.42,0,0,1.48-.24,3.13-.33,0,0,1.18,1.33,3.36,1.46,2.18.13,4.12.22,4.97,0,.85-.22,1.51-.7,1.74-1.57l4.34.02"/>
    <path class="cls-6" d="M174.79,146.27s4.25-.38,9.18-.17"/>
    <path class="cls-6" d="M253.36,146.42c2.22.06,4.91.13,6.75.18"/>
    <path class="cls-1" d="M265.68,145.4c-1.08,2.09-3.64,2.53-4.46,2.59-.83.07-3.57.05-3.57.05-8.04-.2-9.5-2.65-9.5-2.65,0,0,1.49-.2,3.14-.25,0,0,1.14,1.36,3.32,1.54,2.17.18,4.11.32,4.96.12.86-.2,1.52-.66,1.78-1.53l4.33.13"/>
    <path class="cls-6" d="M251.74,145.27s4.25-.27,9.18.05"/>
    <path class="cls-6" d="M193.64,146.43c4.95-.07,12.55-.19,15.28-.28,4.18-.13,18.89-.34,21.56-.34s7.32.23,9.12.38"/>
    <path class="cls-6" d="M191.09,146.46c.71,0,1.58-.02,2.55-.04"/>
    <path class="cls-6" d="M189.13,146.49s.75-.01,1.96-.03"/>
    <path class="cls-1" d="M266.75,135.79s-.09.29.2.64c.29.35,3.43,4.21,4.85,6.83,0,0,1.05,1.08.21,2.41-.84,1.34-1.16,2-1.42,2.38"/>
    <path class="cls-1" d="M189.61,138.52s4.03-3.76,8.06-11.55"/>
    <path class="cls-1" d="M201.89,126.94c-1.92,6.19-5.65,11.58-5.65,11.58l-.13,1.4s-.92,2.97-3.1,5.91c0,0-.31.59-.96.65l-.33.73"/>
    <path class="cls-1" d="M202.92,138.36s2.25-5.58,3.01-11.42"/>
    <path class="cls-6" d="M116.3,137.9s11.91-3.15,22.54-5.46c10.63-2.31,20.51-4.32,25.1-4.81,4.59-.5,27.2-1.44,35-1.57,7.8-.13,21.76-.26,21.76-.26,0,0,25.67-.22,31.9.09,0,0,14.99.48,24.28,2.57,0,0,12.99,2.53,13.21,3.92"/>
    <path class="cls-1" d="M117.85,137.93s17.64-3.92,22.5-4.99c4.86-1.07,16.84-3.49,20.79-4.01,3.95-.52,11.85-1.1,14.61-1.22,2.76-.12,15.67-.65,22.4-.74,6.73-.09,18.12-.19,24.34-.25,6.22-.06,26.61-.29,34.51.35,7.9.64,16.1,1.71,20.66,2.7,4.56.99,8.6,1.86,8.66,2.64.06.83-5.32,1.57-11.46,2.4-6.15.83-19.13,1.7-29.94,2.22-10.81.52-40.35,1.39-48.83,1.45-8.48.06-36.38.12-47.82,0-11.45-.11-31.97-.59-31.97-.59l-.47.23c-1.35,1.74-1.83,5.06-1.83,5.06-.35,1.83-.96,3.53-.96,3.53l.17.48"/>
    <path class="cls-1" d="M253.4,126.96c2.35,1.86,7.57,5.76,13.38,8.62"/>
    <path class="cls-1" d="M248.99,126.72s2.36,2.18,6.36,5.03c1.85,1.32,4.04,2.78,6.52,4.23"/>
    <path class="cls-1" d="M254.05,136.54s.8-2.77,1.3-4.78"/>
    <path class="cls-6" d="M233.46,144.84s13.55-1.96,37.35-1.13"/>
    <path class="cls-6" d="M273.4,143.49s.81,0,2.38-.04l.85-.03c3.27-.11,8.95-.39,16.67-1.09l1-.09c4.77-.45,10.28-1.06,16.46-1.88"/>
    <path class="cls-6" d="M288.1,135.24s18.19-.47,33.64-7.5"/>
    <path class="cls-6" d="M113.87,140.76c-12.32-.06-11.68-.06-16.5,0"/>
    <path class="cls-4" d="M296.35,147.84s2.27-1.92,4.97-2.7c2.7-.79,6.36-2.13,7.28-2.62.91-.48,5.14-1.35,7.45-2.09,2.31-.74,12.07-3.88,15.3-7.28,0,0,13.81-10.24,13.81-54.87"/>
    <path class="cls-1" d="M293.83,78.37s.08,24.23,0,29.98c-.09,5.75-.66,9.52-.66,9.52,0,0-.09.39-.3.81,0,0-1.22,2.7-1.44,3.36-.22.66-.96,2.22,1.53,2.66,2.48.44,14.38,2.16,22.72,1.93,0,0,8.14-.2,11.62-4.65,3.49-4.45,5.37-9.65,6.36-14.47.99-4.82,2.61-10.72,2.61-29.14"/>
    <path class="cls-6" d="M293.8,124.86s13.48,2.7,24.93,2.35c0,0,5.02.08,9.76-5,0,0,5.23-5.4,7.55-21.79,0,0,1.51-11.77,1.51-22.05"/>
    <path class="cls-1" d="M310.01,126.46s-1.39-2.79-1.16-5.17c0,0-.06-1.97,1.86-5.69,0,0,1.22-1.86,1.98-9.41.66-6.57,1.73-15.95,1.73-27.81"/>
    <path class="cls-6" d="M295.66,125.18s8.66-3.66,11.8-6.22c3.14-2.55,4.47-5.58,5.06-10.86"/>
    <path class="cls-6" d="M292.23,121.52s7.84-.76,9.41-1.11c1.57-.35,6.91-1.8,8.89-6.91,0,0,3.6-11.5,3.6-35.15"/>
    <path class="cls-6" d="M115.38,137.67s26.56-6.62,32.19-7.84c5.64-1.22,17.55-3.31,25.39-3.6,7.84-.29,29.17-.99,29.17-.99,39.63,0,88.52-3.72,88.52-3.72"/>
    <path class="cls-6" d="M153.44,120.47s22.14-2.38,36.49-2.79c14.36-.41,73.42-2.21,100.67-3.78"/>
    <path class="cls-1" d="M340.37,132.33s11.3-9.1,11.9-53.95"/>
    <path class="cls-6" d="M309.31,142.26s8.33-.32,16.12-4.04c0,0,8.88-3.29,12.67-11.58,0,0,9.15-17.6,9.15-48.28"/>
    <path class="cls-6" d="M322.85,125.27l1.4.35s4.9,1.83,10.76,2.93"/>
    <path class="cls-6" d="M337.7,128.7s4.77-.31,5.44-1.65"/>
    <g>
      <path class="cls-1" d="M.43,78.37c0,15.18,1.01,23.67,1.8,29.95.55,4.35,1.11,5.32,2.39,8.32.57,1.33,1.89,3.22,2.73,4.59,2.26,3.7,8.4,12.07,10.84,15.57,2.93,4.2,5.28,6.48,8.12,7.38,5.63,1.8,14.64,2.79,14.64,2.79,0,0,7.89.48,9.65.53,1.76.06,6.36.3,20.23.3h11.01c7.2,0,21.35-.31,25.75-.41,3.13-.07,12.74-.16,21.68-.21"/>
      <path class="cls-2" d="M8.98,78.43s.67,1.99,2.25,1.99h1.73s.51-.07.51-1.99"/>
      <path class="cls-1" d="M91.8,78.43c0,38.35,12.96,56.05,12.96,56.05.4.55.05.9.05.9,0,0-.55.55-1.95,1.6s-3.65,2.2-8.5,2.55-13.72.27-25.93.13c-12.21-.13-25.28-1.07-25.28-1.07,0,0-5.47-7.1-12.24-13.57,0,0-2.33-2-5.27-3.5-2.93-1.5-12.37-5.97-13.87-6.9,0,0-2.23-1.2-3-5.4s-2.95-17.06-2.95-30.79"/>
      <path class="cls-6" d="M10.26,110.82s15.91,9,32.12,11.91c16.21,2.9,24.71,4.2,57.63,8.1"/>
      <path class="cls-6" d="M7.85,93.42c13.72.82,47.31,2.66,82.26,3.2"/>
      <path class="cls-6" d="M2.46,93.01s.81.08,2.96.21"/>
      <path class="cls-4" d="M43.16,138.67s.82,1.35.55,1.93c-.15.32-.47,1.03-2.3,1.1s-6.25.38-8.74-.5c-2.49-.88-3.18-1.32-6.34-4.64-3.24-3.41-6.61-7.85-11.5-14-.39-.5-.76-1.01-1.09-1.55-.77-1.25-2.03-3.48-2.4-5.34,0,0-.15-1.2,1.23-.55"/>
      <path class="cls-5" d="M15.6,119.76s7.07,11.14,14.77,18.14c0,0,2.53,2.27,5.44,2.17l2.77-.1s1.93-.2.77-1.77c-1.17-1.57-7.64-9.47-11.77-13.54,0,0-2.93-2.67-4.87-3.57s-4.57-2.07-6.37-2.7c0,0-2.33-1.1-.73,1.37Z"/>
      <path class="cls-5" d="M36.18,140.05s2.66-.25.96-2.42-6-7.64-9.24-11.21c-3.23-3.57-4.24-4.8-5.94-5.67"/>
      <path class="cls-5" d="M30.92,129.93c-3.33.37-4.29-1.67-4.29-1.67l-2.63-5.94"/>
      <path class="cls-5" d="M29.19,129.91l3.24,7.03s.9,2.03,5.17,2.37"/>
      <path class="cls-6" d="M1.96,106.13s2.05,7.44,6.15,12.69,11.36,14.31,14.91,17.51,6.7,5.7,10.76,6.1"/>
      <path class="cls-4" d="M33.47,141.49s-.2,1.15,3.55,2.35c3.75,1.2,11.66,3.55,11.66,3.55"/>
      <path class="cls-6" d="M104.73,135.48s.23-.59,1.63-.81"/>
    </g>
    <path class="cls-6" d="M1.83,105.27s.8,6.39,6.05,14.44c5.26,8.05,14.5,20.49,15.63,21.69s5.79,3.73,9.85,4.39"/>
    <path class="cls-6" d="M127.75,10.56c-5.07.02-8.62.04-9.49.04,0,0-2.4-.1-4.14-.34"/>
    <path class="cls-6" d="M170.23,10.35c-8.56.04-18.33.08-27.47.12"/>
    <path class="cls-6" d="M127.71,145.99c-5.07-.02-8.62-.04-9.49-.04,0,0-2.4.1-4.14.34"/>
    <path class="cls-6" d="M170.19,146.2c-8.56-.04-18.53-.09-27.67-.14"/>
  </g>
</svg>